<svg id="visual" viewBox="0 0 900 600" width="900" height="600" xmlns="http://www.w3.org/2000/svg" xmlns:xlink="http://www.w3.org/1999/xlink" version="1.1"><rect x="0" y="0" width="900" height="600" fill="#f2f5f8"></rect><path d="M0 513L25 504.8C50 496.7 100 480.3 150 467.3C200 454.3 250 444.7 300 439.7C350 434.7 400 434.3 450 450.5C500 466.7 550 499.3 600 500C650 500.7 700 469.3 750 455.8C800 442.3 850 446.7 875 448.8L900 451L900 601L875 601C850 601 800 601 750 601C700 601 650 601 600 601C550 601 500 601 450 601C400 601 350 601 300 601C250 601 200 601 150 601C100 601 50 601 25 601L0 601Z" fill="#ffffff" stroke-linecap="round" stroke-linejoin="miter"></path></svg>